<?xml version="1.0" encoding="UTF-8"?>
<svg id="Layer_2" data-name="Layer 2" xmlns="http://www.w3.org/2000/svg" viewBox="0 0 443.25 232.7">
  <defs>
    <style>
      .cls-1 {
        fill: #fffaf0;
      }
    </style>
  </defs>
  <g id="Layer_1-2" data-name="Layer 1">
    <path class="cls-1" d="M326.23,137.42l-.09,4.56c-4.82.53-7.33,3.31-7.58,8.12,3.41,21.13,3.5,43.96,7.11,64.91,1.12,6.47,2.08,9.84,9.03,11.5l-.84,3.69-35.16-.61-.23-3.06c5.31-1.94,6.96-2.16,7.21-8.22.55-13.5-3.35-38.21-5-52.64-.09-.82-.61-4.26-1.16-4.27l-28.85,68.91-5.65-.53-30.13-67.59c-.69,10.18-1.44,20.4-2.33,30.57-.6,6.83-3.99,23.22-1.73,28.83,1.51,3.75,6.67,3.79,7.59,5.63l-.44,3.09h-24.39l-1.09-1.24.26-2.69c6.05-1.38,8.13-3.92,9.52-9.83,1.57-19.28,5.47-39.4,6.4-58.63.34-6.96,1.19-14.96-7.65-15.94l.25-3.84c.54-.8,1.51-.66,2.33-.76,4.29-.52,15.85-.48,20.18.02,1.71.2,3.1.59,4.27,1.93l26.68,61.55,27.87-63.46h23.61Z"/>
    <path class="cls-1" d="M141.99,45.3l11.6,3.48c25.35,14.06,19.52,45.27-9.24,51.12-11.33,2.3-48.97,2.57-60.85,1.16-.8-.09-1.8.01-2.34-.76l.02-3.19c6.54-2.35,7.71-5.29,8.2-11.93,1.7-22.99-1.34-48.04-.03-71.26.99-8.46-10.83-6.72-7.62-13.43,14.85.41,30.42-.93,45.2-.15,11.62.62,27.36,2.74,31.69,15.54,4.62,13.67-2.75,26.37-16.62,29.4ZM110.25,43.75h15.1c1.01,0,7.05-3.36,8.05-4.33,5.23-5.04,5.2-16.32,2.77-22.75-3.74-9.87-16.83-11.32-25.92-9.3v36.38ZM110.25,50.71v32.9c0,.32,1.12,5.05,1.35,5.61,2.74,6.67,15.54,6.35,21.27,4.62,12.4-3.74,15.02-18.02,11.84-29.22-4.04-14.24-22.12-16.07-34.46-13.92Z"/>
    <path class="cls-1" d="M283.66,87.48c.92,5.55,5,7.83,9.73,9.67l-.56,3.76c-7.63-.47-16.87,1.02-24.3.15-1.05-.12-2.2-.03-2.61-1.28-.9-3.89,2.75-3.39,4.98-4.94,4.1-2.86,4.66-8.81,5.02-13.56,1.63-21.76-.9-45.83-.35-67.75-1.7-6.5-9.07-6.9-10.12-8.46-1.53-2.26-.37-4.4,2.32-4.72,4.43-.53,14.86-.42,19.42,0,1.96.18,3.76.36,5.41,1.56l56.5,68.91c1.75.32,1.07-.76,1.15-1.92.98-13.46-.19-27.63-.81-41.01-.27-5.81,1.54-15.36-2.64-19.81-2.62-2.79-6.84-1.47-5.88-6.43.21-.9,2.66-1.2,3.52-1.28,3.08-.28,20.28-.4,21.74.71.63.48,1.07,1.19,1.13,2,0,2.75-5.71,3.53-7.37,5.81-3.4,4.68-1.71,23.07-1.88,29.78-.13,5.14-1.29,10.31-.88,15.53l.71,46.69c-7.71,2.81-10.49.17-15.4-4.9-16.85-17.41-33.04-40.65-48.77-59.61-3.17-3.83-6.42-7.84-10.04-11.24v62.32Z"/>
    <path class="cls-1" d="M158.85,136.08c73.23-8.27,70.26,100.97,2.98,96.45-57.59-3.86-57.39-90.31-2.98-96.45ZM193.85,200.9c3.33-22-10.48-67.66-40.46-57.11-2.67.94-6.69,3.24-8.72,5.21-1.48,1.44-5.02,5.49-3.52,7.4l52.7,44.5ZM153.87,219.2c13.3,12.47,35.9,5.86,39.09-12.34l-53.69-46.2c-2.22-.07-2.08,15.58-1.97,17.44.71,12.86,7.01,32.14,16.57,41.11Z"/>
    <path class="cls-1" d="M177.6,101.03c-1.09-5.3,2.68-4.46,5.39-6.61s2.94-6.74,3.16-10c1.26-18.41,1.55-49.95-.05-68.15-.54-6.1-1.94-9.89-8.41-11.33l.24-3.83,71.12-.58c3.21.97,5.11,16.51,6.01,20.24-5.12,3.95-7.77-5.57-12.05-8.77-9.03-6.74-25.37-4.53-36-3.87v36.38h15.1c4.56,0,7.95-6.95,9.02-10.71l3.8.21.38,27.57-4.34.38c-1.08-3.82-4.06-10.48-8.87-10.48h-15.1v36.77c0,.37,2.12,3.76,2.78,4.19,4.13,2.65,23.12,1.79,28.39.66,3.04-.65,7.15-2.4,9.47-4.46,4.02-3.58,7.06-14.58,12.45-10.06l.19.99c-2.26,6.98-2.56,15.22-6.44,21.46h-76.25Z"/>
    <path class="cls-1" d="M390.67,162c-1.23-1.29-3.06-9.37-5.97-12.99-12.18-15.2-37.58-5.04-29.09,12.06,7.25,14.58,42.23,10.98,47.8,35.03,5.11,22.03-13.87,36.45-34.21,36.6-6.04.04-28.52-4.5-29.8-11.31-.61-3.25-.22-16.93.9-19.96.65-1.75,2.39-1.48,4.02-1.23l.88.68c2.61,10.06,8.56,21.05,19.1,24.25,13.03,3.95,28.64-2.95,24.1-18.68-4.08-14.15-35.56-13.02-45-29.32-9.88-17.06,1.95-38.94,21.22-41.18,6.46-.75,29.65.38,31.25,8.84.31,1.65.3,14.92-.11,16.11-.63,1.84-3.81,2.46-5.11,1.1Z"/>
    <path class="cls-1" d="M47.15,120.39l-13.94,12.2-1.74-1.74,9.88-10.45c-2.87.3-6.58-.67-9.26.41-3.51,1.41-8.01,8.07-11.26,10.41-2.3,1.65-3.03,2.21-5.02-.38l10.05-10.44c-2.42.28-5.72-.53-7.97.15s-10.84,9.74-13.67,11.88c-2.54,1.93-4.86.9-3.52-1.97s8.54-6.49,10.45-9.68c-4.15-.72-3.77-3.92,0-5.41-1.62-1.91-13.22-9.6-10.83-12,7.96.46,12.22,11.59,19.72,12.99,1.3.24,6.22.39,6.6-1.37-2.39-1.39-9.38-6.32-10.49-8.53-.59-1.18.64-2.82,1.58-2.9,1.4-.13,12.19,10.34,14.35,11.8l9.28.39-9.21-8.97.68-2.26c3.38-2.41,11.55,10.09,15.11,11.25h371.2l-9.1-9.69,1.74-1.8c2.78,2.24,5.91,3.97,9.16,5.43s21.71,6.92,22.19,8c.14.32.33,2.05-.5,1.93-10.7,3.2-21.81,6.18-30.86,13.04l-1.57-2.94,9.71-9.33H47.15Z"/>
    <path class="cls-1" d="M56.44,144.38c-2.41.33-6.57,2.3-8.5,3.89-3.62,2.97-6.3,12.84-10.43,6.64l4.3-17.54h74.92s4.24,19.3,4.24,19.3c-4.72,2.68-5.21-2.18-7.66-4.91-2.02-2.25-7.44-7.37-10.43-7.37h-13.55v76.25c0,4.19,9.98,4.33,7.74,9.68h-35.61l-.08-4.17c3.4-.2,7.82-3.56,7.82-7.06v-74.7c-4.03.38-8.87-.53-12.77,0Z"/>
  </g>
</svg>